# xmcd CD database file
#
# Track frame offsets:
#	150
#	26640
#	46612
#	81825
#	102577
#	134405
#	167347
#	193897
#	217190
#	246842
#	272522
#
# Disc length: 3891 seconds
#
# Revision: 0
# Processed by: cddbd v1.5.1PL0 Copyright (c) Steve Scherf et al.
# Submitted via: CDex 1.60beta1
#
DISCID=990f310b
DTITLE=Soul/Jazz Quintet - Soul Rendezvous
DYEAR=2001
DGENRE=Jazz
TTITLE0=Soul Rendezvous
TTITLE1=Day By Day
TTITLE2=Secret Love
TTITLE3=Sara's Dance
TTITLE4=Summertime
TTITLE5=When Swing Was King
TTITLE6=Youngtown
TTITLE7=Mike's Revenge
TTITLE8=When Will I Know?
TTITLE9=Bye Bye Blackbird
TTITLE10=Themeless
EXTD=YEAR: 2001
EXTT0=
EXTT1=
EXTT2=
EXTT3=
EXTT4=
EXTT5=
EXTT6=
EXTT7=
EXTT8=
EXTT9=
EXTT10=
PLAYORDER=
